<svg width="130" height="54" viewBox="0 0 130 54" fill="none" xmlns="http://www.w3.org/2000/svg">
  <rect width="130" height="54" rx="9" fill="#b7ccd2"/>
  <path d="M79.5147 27.2731C79.5161 26.456 79.4466 25.6404 79.3068 24.8353H67.9973V29.4551H74.4775C74.3445 30.1933 74.0633 30.8969 73.6509 31.5235C73.2385 32.1501 72.7035 32.6866 72.078 33.1006V36.0984H75.9443C77.124 34.9592 78.0513 33.585 78.6664 32.0648C79.2814 30.5445 79.5704 28.9121 79.5147 27.2731Z" fill="#009EE2"/>
  <path d="M67.9939 38.9955C70.9166 39.0773 73.7605 38.0412 75.9457 36.0985L72.0794 33.1008C71.1484 33.6967 70.0939 34.0727 68.9959 34.2002C67.898 34.3277 66.7854 34.2035 65.7426 33.8368C64.6998 33.4701 63.7543 32.8707 62.9778 32.0841C62.2012 31.2974 61.6141 30.3442 61.261 29.2968H57.2763V32.3873C58.275 34.3737 59.806 36.0435 61.6985 37.2104C63.591 38.3772 65.7706 38.9952 67.9939 38.9955Z" fill="#34A853"/>
  <path d="M61.2609 29.2924C60.7585 27.8028 60.7585 26.1895 61.2609 24.6998V21.6141H57.2762C56.437 23.2858 56 25.1304 56 27.0009C56 28.8714 56.437 30.716 57.2762 32.3877L61.2609 29.2924Z" fill="#FBBC04"/>
  <path d="M67.9939 19.7486C69.7044 19.7208 71.3574 20.3666 72.596 21.5466L76.0241 18.1218C73.8511 16.0829 70.9733 14.9645 67.9939 15.0009C65.7701 15.0015 63.5902 15.6203 61.6976 16.788C59.8051 17.9557 58.2743 19.6265 57.2763 21.6138L61.261 24.7043C61.7248 23.2784 62.6236 22.0336 63.8312 21.1447C65.0388 20.2559 66.4945 19.7676 67.9939 19.7486Z" fill="#EA4335"/>
</svg>
