<?xml version="1.0" encoding="utf-8"?>
<!-- Generator: Adobe Illustrator 27.5.0, SVG Export Plug-In . SVG Version: 6.00 Build 0)  -->
<svg version="1.1" xmlns="http://www.w3.org/2000/svg" xmlns:xlink="http://www.w3.org/1999/xlink" x="0px" y="0px"
	 viewBox="0 0 750 500" style="enable-background:new 0 0 750 500;" xml:space="preserve">
<g id="BACKGROUND">
</g>
<g id="OBJECT">
	<g>
		<g>
			<g>
				<polygon style="fill:#99F5FF;" points="0,0 0,31.67 678.829,0 				"/>
				<polygon style="fill:#C2F9FF;" points="750,55.028 0,72.759 0,90.668 750,85.396 				"/>
				<polygon style="fill:#AEF4FF;" points="750,0 678.829,0 0,31.67 0,72.759 750,55.028 				"/>
				<path style="fill:#E6FFFF;" d="M0,112.354v130.433c76.785-0.853,153.643-0.998,230.083,3.658
					c41.74,2.542,83.439,6.554,124.378,12.591C484.419,241.831,617.857,236.349,750,242.774V134.178L0,112.354z"/>
				<polygon style="fill:#D2FDFF;" points="750,85.396 0,90.668 0,112.354 750,134.178 				"/>
			</g>
			<g>
				<polygon style="fill:#92D2FB;" points="0,137.277 90,85 139.875,120 171,106 217.5,137.277 262.875,116 289.758,127.675 342,97 
					477.853,167.136 477.853,284.795 0,284.795 				"/>
				<g>
					<g>
						<polygon style="fill:#66ABDC;" points="458.409,240.17 439.5,187 375,194 415.5,158 438,106 450,110 458.409,90.963 
							316.641,157.35 262.875,137.277 139.875,192.35 105.375,175.35 0,221.35 0,271.1 603.688,271.1 522,225 						"/>
						<g>
							<polygon style="fill:none;" points="636.085,155.35 636.085,155.35 636.089,155.352 							"/>
							<polygon style="fill:#FFFFFF;" points="696.375,155.35 667.875,173.35 636.089,155.352 689.56,185.695 699.75,178.922 
								713.5,185.695 721.75,180.333 750,191 750,180.35 							"/>
							<polygon style="fill:#FFFFFF;" points="495.75,149.5 513,158.333 534,144 583.875,176.75 606.75,154.84 636.75,167.136 
								636.085,155.35 558.375,111.35 516.375,130.35 458.409,90.963 458.409,90.963 450,110 438,106 428.217,128.61 477.853,162.5 
															"/>
							<polygon style="fill:#92D2FB;" points="713.5,185.695 699.75,178.922 689.56,185.695 636.089,155.352 636.085,155.35 
								636.75,167.136 606.75,154.84 583.875,176.75 534,144 513,158.333 495.75,149.5 477.853,162.5 428.217,128.61 415.5,158 
								375,194 439.5,187 458.409,240.17 522,225 603.688,271.1 750,271.1 750,191 721.75,180.333 							"/>
						</g>
					</g>
					<polygon style="fill:#66ABDC;" points="516.375,130.35 534,144 556.5,127.5 558.375,111.35 					"/>
					<polygon style="fill:#66ABDC;" points="667.875,173.35 677.625,178.922 692.25,169.75 696.375,155.35 					"/>
					<polygon style="fill:#FFFFFF;" points="316.641,157.35 280.5,173.667 262.875,137.277 					"/>
					<polygon style="fill:#FFFFFF;" points="105.375,175.35 109,193.333 117,193.333 113.625,205.333 139.875,192.35 					"/>
				</g>
				<polygon style="fill:#FFFFFF;" points="90,85 98.5,118.333 78.5,114.333 132.5,164.333 132.5,137.277 139.875,134.137 
					139.875,120 				"/>
				<polygon style="fill:#FFFFFF;" points="171,106 173,137.277 179,137.277 179,158.333 217.5,137.277 				"/>
				<polygon style="fill:#FFFFFF;" points="342,97 342,119 330.5,116.667 330.5,137.277 322,137.277 322,154.84 391.236,122.419 
									"/>
			</g>
			<linearGradient id="SVGID_1_" gradientUnits="userSpaceOnUse" x1="375" y1="173.1749" x2="375" y2="286.4927">
				<stop  offset="0.0764" style="stop-color:#FFFFFF;stop-opacity:0"/>
				<stop  offset="1" style="stop-color:#FFFFFF"/>
			</linearGradient>
			<rect y="173.175" style="fill:url(#SVGID_1_);" width="750" height="113.318"/>
		</g>
		<path style="fill:#578771;" d="M725.545,220.445c-2.366-1.95-5.161-3.658-8.226-3.699c-3.066-0.041-6.319,2.142-6.507,5.203
			c-3.74-3.787-9.725-5.164-14.744-3.394c-5.019,1.771-8.265,6.625-8.802,11.92c-5.239-3.244-13.767-2.085-18.085,2.311
			c-2.041-3.96-7.799-5.396-11.46-2.857c-0.128-4.719-2.905-9.278-7.038-11.557c-4.133-2.279-10.528-2.623-14.587-0.213
			c-3.065-3.208-7.324-5.246-11.745-5.62c-3.219-0.272-6.498,0.35-9.42,1.726c-1.218,0.367-2.351,0.9-3.317,1.642
			c-2.436-8.895-10.921-15.779-20.127-16.33c-9.206-0.551-18.451,5.272-21.931,13.812c-13.568-5.763-31.689,1.022-38.308,14.194
			c-5.869-4.311-14.415-3.111-20.498,0.892c-6.084,4.003-10.264,10.25-14.277,16.326c-8.814-4.009-20.079-0.367-24.692,8.146
			c-1.551-2.296-4.17-3.839-6.93-4.082s-5.608,0.818-7.537,2.808c-2.651-1.875-6.036-2.679-9.247-2.197s-6.887,1.226-8.87,3.797
			c-4.548-4.381-11.132-6.554-17.394-5.741c-6.262,0.813-12.073,4.596-15.351,9.993c-3.434-2.314-9.135-0.911-11.323,2.564
			c-2.617-3.066-6.297-5.236-10.277-5.912c-5.455-0.926-11.313,0.973-15.188,4.923c-2.228-1.83-5.377-2.473-8.143-1.663
			c-1.966,0.576-3.688,1.882-4.846,3.569c-2.51-6.186-8.296-10.943-14.864-12.167c-6.695-1.248-13.962,1.214-18.519,6.275
			c-1.127-4.248-4.852-7.689-9.175-8.478c-4.323-0.788-7.984-1.473-10.538,2.103c0.879-6.077-1.851-12.539-6.821-16.144
			c-4.97-3.605-11.96-4.195-17.464-1.474c-2.272-9.561-11.026-17.213-20.804-18.188c-9.778-0.975-19.87,4.798-23.986,13.722
			c-5.755-4.393-13.606-5.903-20.58-3.957s-12.909,7.302-15.558,14.041c-3.608-2.496-8.709-4.48-12.29-1.945
			c-0.324-4.273-3.061-8.281-6.922-10.138c-3.861-1.857-8.701-1.493-12.241,0.921c-2.67-8.538-10.19-15.374-18.944-17.219
			c-8.667-1.827-16.912,1.314-22.791,7.912c-2.217-0.786-4.601-1.081-6.935-0.761c-6.011,0.826-11.271,5.642-12.622,11.557
			c-1.94-1.653-5.181-1.871-7.689-1.418c-2.508,0.453-4.779,2.078-6.018,4.305c-4.159-4.291-10.558-6.884-16.534-6.915
			c-5.975-0.031-11.925,2.434-16.128,6.682c-1.332-1.814-3.586-2.913-5.835-2.845c-2.25,0.068-4.433,1.301-5.653,3.192
			c-4.248-3.688-10.526-5.863-16.09-5.033c-5.564,0.83-10.701,4.191-13.688,8.959C10.333,223.333,0,224.687,0,224.687v71.908h125
			h26.667H614h11h125v-88.843C736.625,206,730.13,212.661,725.545,220.445z"/>
		<g>
			<path style="fill:#375E7B;" d="M198.341,250.018c-0.866-3.312-3.243-6.196-6.329-7.678c-3.085-1.482-6.823-1.535-9.949-0.142
				c-2.367,1.055-4.534,2.923-7.125,2.89c-2.501-0.033-4.567-1.826-6.666-3.186c-5.719-3.705-13.06-4.523-19.664-2.843
				c-6.604,1.68-12.475,5.707-17.001,10.801c1.889,0,4.17,0.749,6.059,0.749L198.341,250.018z"/>
			<path style="fill:#375E7B;" d="M691.734,250.018c-0.866-3.312-3.243-6.196-6.329-7.678c-3.085-1.482-6.823-1.535-9.949-0.142
				c-2.367,1.055-4.534,2.923-7.125,2.89c-2.501-0.033-4.567-1.826-6.666-3.186c-5.719-3.705-13.06-4.523-19.664-2.843
				c-6.604,1.68-12.475,5.707-17.001,10.801c1.889,0,4.17,0.749,6.059,0.749L691.734,250.018z"/>
			<path style="fill:#375E7B;" d="M270.146,256.667c-3.099-7.919-12.165-12.284-20.667-12.112s-16.489,4.029-23.732,8.485
				C240.003,253.336,255.89,256.371,270.146,256.667z"/>
			<path style="fill:#375E7B;" d="M402.237,275.156c-1.142-2.412-3.878-3.968-6.535-3.716c-2.025,0.192-3.904,1.317-5.938,1.31
				c-2.344-0.007-4.381-1.491-6.487-2.52c-6.133-2.995-13.991-2.027-19.213,2.368C375.925,277.864,389.679,278.429,402.237,275.156z
				"/>
			<path style="fill:#375E7B;" d="M461.184,262.153c-4.135-2.908-9.505-3.993-14.444-2.919c-4.94,1.074-9.374,4.292-11.927,8.654
				C442.348,265.48,453.402,263.573,461.184,262.153z"/>
			<path style="fill:#375E7B;" d="M588.98,250.069c-1.85-3.925-5.438-6.99-9.603-8.205c-4.165-1.215-8.839-0.558-12.508,1.757
				c-1.394,0.88-2.656,1.988-4.165,2.65c-1.509,0.662-3.41,0.789-4.694-0.244c-1.91-1.537-1.461-4.574-2.591-6.75
				c-1.636-3.153-6.242-3.57-9.385-1.915c-3.143,1.656-5.245,4.713-7.496,7.462c-2.251,2.749-5.065,5.439-8.597,5.819
				c-3.506,0.378-6.817-1.613-10.317-2.047c-3.537-0.439-7.127,0.755-10.141,2.658c-3.014,1.903-5.536,4.479-7.983,7.071
				C529.957,256.662,560.708,253.711,588.98,250.069z"/>
			<path style="fill:#375E7B;" d="M117.61,250.165c-1.853-4.605-5.749-8.344-10.426-10.007c-4.677-1.663-10.059-1.222-14.403,1.18
				c-1.65,0.912-3.165,2.095-4.933,2.752c-1.768,0.657-3.947,0.676-5.345-0.589c-2.08-1.882-1.367-5.321-2.512-7.881
				c-1.66-3.71-6.894-4.491-10.593-2.807c-3.7,1.683-6.303,5.036-9.055,8.027c-2.753,2.991-6.145,5.878-10.204,6.078
				c-4.029,0.199-7.68-2.293-11.648-3.02c-4.011-0.736-8.19,0.391-11.759,2.365c-3.569,1.974-6.619,4.75-9.586,7.548
				C49.757,253.792,85.077,252.455,117.61,250.165z"/>
			<path style="fill:#375E7B;" d="M750,232.854c-17.09-0.452-40.986,6.46-52.991,18.63L750,255.284V232.854z"/>
		</g>
		<g>
			<path style="fill:#CEF5A7;" d="M477.576,302.334c12.978,0.274,29.312,1.591,47.545,3.601
				c60.22-27.685,124.089-47.423,189.437-58.499c-41.328-1.182-82.706-0.621-123.988,1.669
				c-46.593,9.748-92.264,23.899-136.2,42.216C462.237,294.706,469.983,298.372,477.576,302.334z"/>
			<path style="fill:#BEE591;" d="M477.576,302.334c-7.593-3.962-15.339-7.628-23.206-11.013c-2.625,1.094-5.245,2.198-7.857,3.322
				c10.741,3.883,21.357,8.065,31.803,12.585c12.182,1.086,24.338,2.272,36.464,3.542c3.433-1.642,6.884-3.246,10.342-4.835
				C506.887,303.925,490.554,302.608,477.576,302.334z"/>
			<path style="fill:#E4FFC4;" d="M590.569,249.104c-64.663,3.587-129.089,11.423-192.72,23.467
				c19.333,4.607,38.264,10.894,56.52,18.749C498.306,273.004,543.976,258.853,590.569,249.104z"/>
			<path style="fill:#DBFCAE;" d="M397.849,272.571c-4.904,0.928-9.805,1.874-14.699,2.853
				c21.412,5.365,42.625,11.723,63.362,19.219c2.612-1.124,5.232-2.228,7.857-3.322
				C436.113,283.465,417.183,277.178,397.849,272.571z"/>
			<path style="fill:#DBFCAE;" d="M525.121,305.935c-3.458,1.589-6.909,3.193-10.342,4.835c33.102,3.466,65.97,7.596,98.49,12.253
				c2.746-1.189,5.498-2.362,8.258-3.518C588.503,314.164,554.368,309.158,525.121,305.935z"/>
			<path style="fill:#E4FFC4;" d="M621.528,319.505c41.495-17.384,84.55-31.04,128.472-40.786v-29.845
				c-11.808-0.623-23.623-1.1-35.442-1.439c-65.347,11.076-129.217,30.814-189.437,58.499
				C554.368,309.158,588.503,314.164,621.528,319.505z"/>
			<path style="fill:#CEF5A7;" d="M696.258,332.35c17.624-8.017,35.553-15.363,53.742-22.003v-31.628
				c-43.922,9.745-86.977,23.401-128.472,40.786C648.221,323.822,674.186,328.358,696.258,332.35z"/>
			<path style="fill:#BEE591;" d="M621.528,319.505c-2.76,1.156-5.512,2.329-8.258,3.518c25.911,3.711,51.595,7.76,76.999,12.076
				c1.991-0.927,3.989-1.839,5.989-2.749C674.186,328.358,648.221,323.822,621.528,319.505z"/>
			<path style="fill:#E4FFC4;" d="M750,342.389v-32.042c-18.189,6.639-36.118,13.986-53.742,22.003
				C719.989,336.642,739.212,340.304,750,342.389z"/>
			<path style="fill:#DBFCAE;" d="M696.258,332.35c-1.999,0.909-3.997,1.822-5.989,2.749c20.095,3.414,40.021,6.988,59.731,10.707
				v-3.416C739.212,340.304,719.989,336.642,696.258,332.35z"/>
		</g>
		<g>
			<path style="fill:#CEF5A7;" d="M0,252.708v75.373c55.957-11.919,113.108-19.787,170.814-24.326
				c-49.98-29.188-106.638-46.934-164.344-51.408C4.238,252.472,2.076,252.593,0,252.708z"/>
			<path style="fill:#E4FFC4;" d="M6.47,252.346c57.706,4.475,114.364,22.22,164.344,51.408c16.651-1.31,33.346-2.353,50.074-3.122
				c-49.46-28.764-105.425-46.339-162.454-50.959C38.401,250.515,20.853,251.535,6.47,252.346z"/>
			<path style="fill:#CEF5A7;" d="M478.315,307.228c-30.61-13.246-62.662-23.661-95.165-31.804
				c-33.36-8.358-67.193-14.323-100.425-18.504c34.396,9.987,67.412,24.741,97.733,43.789
				C413.179,302.128,445.836,304.333,478.315,307.228z"/>
			<path style="fill:#E4FFC4;" d="M282.725,256.919c-28.551-3.593-56.656-5.867-83.639-7.209
				c44.706,8.818,87.849,25.614,126.722,49.384c18.224,0.274,36.446,0.824,54.649,1.614
				C350.137,281.66,317.121,266.907,282.725,256.919z"/>
			<path style="fill:#CEF5A7;" d="M58.434,249.674c57.03,4.62,112.994,22.194,162.454,50.959
				c34.884-1.603,69.903-2.066,104.921-1.538c-38.874-23.769-82.016-40.566-126.722-49.384
				C146.164,247.078,97.566,248.031,58.434,249.674z"/>
		</g>
		<g>
			<path style="fill:#A6D57F;" d="M84.608,265.178H33.396c-0.266-1.262,2.238-2.746,3.527-2.795c1.289-0.049,2.66,0.317,3.822-0.242
				c1.973-0.948,2.306-4.062,4.403-4.688c2.703-0.807,4.575,3.297,7.39,3.474c3.282,0.206,5.27-4.936,8.493-4.284
				c2.819,0.57,3.212,5.005,5.933,5.935c1.697,0.58,3.457-0.477,5.144-1.082C75.979,260.11,81.856,262.126,84.608,265.178z"/>
			<path style="fill:#A6D57F;" d="M109.483,256.512H86.396c1.074-1.341,1.532-3.386,3.01-4.261c1.478-0.875,3.43-1.163,4.896-0.269
				c0.838,0.511,1.482,1.373,2.431,1.626c1.601,0.427,3.035-1.047,4.628-1.5c1.34-0.381,2.805-0.008,4.006,0.699
				C106.569,253.514,108.514,255.51,109.483,256.512z"/>
			<path style="fill:#A6D57F;" d="M319.709,272.319h-23.087c1.074-1.341,1.532-3.386,3.01-4.261c1.478-0.875,3.43-1.163,4.896-0.269
				c0.838,0.511,1.482,1.373,2.431,1.626c1.6,0.427,3.035-1.047,4.628-1.5c1.34-0.381,2.805-0.008,4.006,0.699
				C316.795,269.321,318.74,271.317,319.709,272.319z"/>
			<path style="fill:#A6D57F;" d="M501.728,268.727h-23.087c1.074-1.341,1.532-3.386,3.01-4.261c1.478-0.875,3.43-1.163,4.896-0.269
				c0.838,0.511,1.482,1.373,2.431,1.626c1.601,0.427,3.035-1.047,4.628-1.5c1.34-0.381,2.805-0.007,4.006,0.699
				C498.814,265.73,500.759,267.726,501.728,268.727z"/>
			<path style="fill:#A6D57F;" d="M149.109,267.678h-24.213c0.369-1.326,0.968-3.152,2.044-4.011c1.076-0.859,2.68-1.154,3.85-0.428
				c0.892,0.554,1.439,1.611,2.422,1.98c0.969,0.364,2.072-0.071,2.875-0.724s1.415-1.512,2.189-2.2
				c1.824-1.622,4.554-2.147,6.85-1.318C147.42,261.807,148.742,265.265,149.109,267.678z"/>
			<path style="fill:#A6D57F;" d="M213.229,259.178h-38.667c-0.558-1.042,0.504-2.755,1.553-3.298
				c1.05-0.543,2.302-0.473,3.474-0.323c1.172,0.15,2.376,0.365,3.521,0.073c1.751-0.446,2.981-1.959,4.204-3.29
				c1.222-1.331,2.796-2.648,4.596-2.488c3.473,0.308,4.636,5.579,8.066,6.204c1.878,0.342,3.653-0.874,5.521-1.27
				C208.28,254.196,211.939,256.643,213.229,259.178z"/>
			<path style="fill:#A6D57F;" d="M746.083,266.19H701.23c0.66-1.667,1.274-3.679,2.42-5.058c1.146-1.379,2.859-2.411,4.647-2.284
				c2.878,0.204,4.875,3.181,7.708,3.731c2.784,0.541,5.43-1.409,7.32-3.523c1.89-2.115,3.571-4.606,6.166-5.752
				c3.416-1.509,7.552-0.171,10.349,2.305C742.635,258.083,744.405,262.853,746.083,266.19z"/>
			<path style="fill:#A6D57F;" d="M268.547,276.974h-28.098c0.413-1.044,0.798-2.305,1.516-3.169
				c0.718-0.864,1.791-1.511,2.911-1.431c1.803,0.128,3.054,1.993,4.829,2.337c1.744,0.339,3.401-0.883,4.585-2.207
				c1.184-1.325,2.237-2.885,3.863-3.603c2.14-0.945,4.731-0.107,6.483,1.444C266.387,271.896,267.496,274.884,268.547,276.974z"/>
			<path style="fill:#A6D57F;" d="M676.396,259.428h24.681c-0.615-1.139-1.917-2.654-2.908-3.486
				c-0.991-0.832-2.404-1.284-3.608-0.81c-1.42,0.558-2.197,2.211-3.637,2.716c-1.876,0.659-3.724-0.887-5.594-1.563
				C682.782,255.364,678.099,257.32,676.396,259.428z"/>
			<path style="fill:#A6D57F;" d="M669.649,272.023h-43.003c1.027-2.638,3.624-4.455,6.413-3.967
				c1.375,0.241,2.724,0.947,4.095,0.685c2.412-0.462,3.285-3.445,5.144-5.048c2.016-1.739,5.407-1.542,7.208,0.417
				c1.237,1.346,1.794,3.362,3.401,4.233c1.322,0.717,2.97,0.417,4.36-0.157c1.391-0.574,2.687-1.404,4.152-1.747
				C664.675,265.678,668.747,268.804,669.649,272.023z"/>
			<path style="fill:#A6D57F;" d="M564.344,277.604h-43.003c1.027-2.638,3.624-4.455,6.413-3.967
				c1.375,0.241,2.724,0.947,4.096,0.685c2.412-0.462,3.284-3.444,5.144-5.048c2.016-1.739,5.407-1.542,7.208,0.417
				c1.237,1.346,1.794,3.362,3.401,4.234c1.322,0.717,2.969,0.417,4.36-0.157c1.391-0.574,2.687-1.404,4.152-1.747
				C559.369,271.259,563.442,274.385,564.344,277.604z"/>
			<path style="fill:#A6D57F;" d="M710.238,296.08h-43.003c1.027-2.638,3.624-4.455,6.413-3.967c1.375,0.24,2.724,0.947,4.096,0.685
				c2.412-0.462,3.284-3.444,5.144-5.048c2.016-1.739,5.407-1.542,7.208,0.417c1.237,1.346,1.794,3.362,3.401,4.233
				c1.322,0.717,2.969,0.417,4.36-0.157c1.391-0.574,2.687-1.404,4.152-1.747C705.263,289.735,709.336,292.861,710.238,296.08z"/>
			<path style="fill:#A6D57F;" d="M609.065,264.356h-25.502c0.433-1.495,0.752-2.698,1.692-3.938c0.94-1.24,2.492-2.142,4.024-1.865
				c2.652,0.479,3.933,4.044,6.605,4.398c1.948,0.258,3.607-1.317,5.452-1.992C604.077,259.957,607.664,261.797,609.065,264.356z"/>
		</g>
		<path style="fill:#A6D57F;" d="M0,328.08v19.733c68.232-18.284,138.3-32.57,208.821-29.614c6.945,0.291,15.225,1.626,18.06,7.973
			c1.721,3.853,0.676,8.539-1.814,11.945c-2.49,3.407-6.22,5.706-10.073,7.428c-13.197,5.896-28.28,5.818-42.049,10.218
			c-14.97,4.784-27.938,14.713-43.033,19.086c-17.562,5.089-36.281,2.233-54.562,1.896C49.66,376.272,23.904,380.997,0,390.415
			v13.553c246.837-47.14,501.956-50.755,750-10.384v-47.779c-87.355-16.483-178.793-30.297-271.685-38.578
			C318.689,292.999,154.789,295.11,0,328.08z M547.874,325.905c7.209,0.911,14.937,2.159,20.042,6.783
			c5.105,4.624,5.393,13.783-1.173,16.558c-2.32,0.98-4.991,0.993-7.563,0.987c-60.644-0.146-121.289-0.293-181.933-0.44
			c-7.112-0.017-14.487-0.084-20.934-2.768c-6.447-2.684-11.691-8.776-10.47-14.998c3.844-19.579,47.314-14.609,61.589-14.384
			c29.922,0.473,59.855,1.307,89.702,3.38C514.096,322.2,531.026,323.775,547.874,325.905z"/>
		<path style="fill:#8FC36F;" d="M0,403.969v92.622c242.058-74.07,497.26-104.942,750-90.866v-12.141
			C501.956,353.213,246.837,356.828,0,403.969z"/>
		<path style="fill:#3F6764;" d="M308.145,500H750v-22.704C602.724,461.936,453.079,469.69,308.145,500z"/>
		<path style="fill:#568670;" d="M225.731,324.242c-3.522-4.692-10.738-5.784-16.91-6.043C138.3,315.243,68.232,329.529,0,347.814
			v5.744c62.455-18.664,127.074-30.074,192.146-33.902C203.517,318.987,216.073,318.994,225.731,324.242z"/>
		<path style="fill:#B6ECF0;" d="M225.731,324.242c-9.658-5.248-22.214-5.255-33.585-4.586
			C127.074,323.483,62.455,334.894,0,353.558v36.858c23.904-9.418,49.66-14.143,75.351-13.669c18.281,0.337,37,3.192,54.562-1.896
			c15.095-4.374,28.063-14.303,43.033-19.086c13.769-4.4,28.852-4.322,42.049-10.218c3.853-1.721,7.583-4.021,10.073-7.428
			c2.49-3.407,3.535-8.092,1.814-11.945C226.565,325.466,226.172,324.83,225.731,324.242z"/>
		<path style="fill:#B6ECF0;" d="M514.294,325.087c-42.349-1.399-84.699-2.798-127.048-4.196c-8.13-0.268-16.374-0.526-24.289,1.351
			c-6.412,1.521-12.67,4.635-17.04,9.471c-0.023,0.105-0.052,0.207-0.073,0.314c-1.222,6.222,4.023,12.314,10.47,14.998
			c6.447,2.684,13.822,2.751,20.934,2.768c60.644,0.147,121.289,0.293,181.933,0.44c2.572,0.006,5.243-0.006,7.563-0.987
			c5.232-2.211,6.101-8.471,3.66-13.264C553.937,326.787,533.498,325.721,514.294,325.087z"/>
		<path style="fill:#568670;" d="M362.957,322.241c7.915-1.877,16.159-1.619,24.289-1.351c42.349,1.399,84.699,2.798,127.048,4.196
			c19.204,0.634,39.643,1.701,56.109,10.895c-0.622-1.222-1.449-2.354-2.487-3.293c-5.105-4.624-12.833-5.871-20.042-6.783
			c-16.848-2.13-33.778-3.705-50.739-4.883c-29.848-2.073-59.78-2.906-89.702-3.38c-14.196-0.225-57.264-5.137-61.516,14.07
			C350.287,326.876,356.545,323.762,362.957,322.241z"/>
		<g>
			<path style="fill:#D4FEFF;" d="M110.178,328.538l-27.612,48.449c5.794,0.258,11.61,0.625,17.399,0.783l29.682-52.08
				C123.146,326.562,116.656,327.515,110.178,328.538z"/>
			<path style="fill:#D4FEFF;" d="M70.447,335.775l-24.314,42.661c3.741-0.5,7.497-0.885,11.26-1.168l25.009-43.881
				C78.412,334.154,74.427,334.95,70.447,335.775z"/>
			<path style="fill:#D4FEFF;" d="M26.238,346.193L1.32,389.914c8.759-3.378,17.757-6.133,26.908-8.231l23.866-41.874
				C43.442,341.802,34.821,343.927,26.238,346.193z"/>
			<path style="fill:#D4FEFF;" d="M153.612,322.825l-30.558,53.617c2.303-0.415,4.591-0.935,6.859-1.592
				c0.846-0.245,1.684-0.513,2.518-0.792l29.678-52.073C159.275,322.254,156.443,322.528,153.612,322.825z"/>
			<path style="fill:#D4FEFF;" d="M196.954,319.431l-20.065,35.206c6.554-1.708,13.327-2.661,19.995-3.912l17.299-30.352
				C208.619,319.367,202.712,319.237,196.954,319.431z"/>
			<path style="fill:#D4FEFF;" d="M176.561,320.736l-25.659,45.02c3.262-1.688,6.52-3.388,9.822-4.979l23.124-40.573
				C181.419,320.371,178.99,320.548,176.561,320.736z"/>
		</g>
		<g>
			<path style="fill:#D4FEFF;" d="M433.586,322.421l-15.656,27.47c3.238,0.008,6.476,0.016,9.713,0.023l15.49-27.178
				C439.951,322.631,436.768,322.526,433.586,322.421z"/>
			<path style="fill:#D4FEFF;" d="M404.273,321.453l-16.167,28.366c5.645,0.014,11.291,0.027,16.936,0.041l15.877-27.857
				C415.37,321.819,409.822,321.636,404.273,321.453z"/>
			<path style="fill:#D4FEFF;" d="M387.246,320.89c-0.393-0.013-0.787-0.024-1.18-0.037l-16.406,28.787
				c1.707,0.089,3.422,0.126,5.13,0.141l16.391-28.76C389.869,320.977,388.558,320.934,387.246,320.89z"/>
			<path style="fill:#D4FEFF;" d="M467.068,323.527l-15.073,26.446c3.065,0.007,6.13,0.015,9.195,0.022l14.915-26.17
				C473.093,323.726,470.081,323.626,467.068,323.527z"/>
			<path style="fill:#D4FEFF;" d="M539.946,326.836l-13.289,23.317c4.099,0.01,8.199,0.02,12.298,0.03l12.176-21.363
				C547.469,327.976,543.73,327.329,539.946,326.836z"/>
			<path style="fill:#D4FEFF;" d="M559.771,331.287l-10.784,18.921c1.412,0.003,2.825,0.007,4.237,0.01l10.044-17.623
				C562.117,332.128,560.95,331.694,559.771,331.287z"/>
			<path style="fill:#D4FEFF;" d="M495.304,324.459l-14.581,25.583c4.733,0.011,9.467,0.023,14.2,0.034l14.337-25.157
				C504.609,324.767,499.956,324.613,495.304,324.459z"/>
			<path style="fill:#D4FEFF;" d="M515.542,325.13l-14.227,24.962c2.079,0.005,4.158,0.01,6.237,0.015l14.101-24.742
				C519.607,325.274,517.57,325.199,515.542,325.13z"/>
		</g>
		<polygon style="fill:#325677;" points="148,479.13 133.302,413.18 125.419,448.552 116.606,409.006 104.041,465.387 
			89.058,398.154 74.451,463.696 58.17,390.641 42.769,459.746 29.787,401.493 18.517,452.062 7.247,401.493 0,434.011 0,499.165 
			29.014,499.165 33.798,500 82.542,500 82.17,498.331 111.383,498.331 106.732,477.46 118.977,477.46 118.605,479.13 		"/>
		<path style="fill:#568670;" d="M0,496.591V500h308.145c144.934-30.31,294.58-38.064,441.855-22.704v-71.571
			C497.26,391.649,242.058,422.521,0,496.591z"/>
		<g>
			<path style="fill:#3F6764;" d="M471.9,450.919H350.383c0.425-11.33,10.031-24.065,20.686-27.94
				c10.656-3.875,23.511-0.682,31.115,7.729c4.611,5.1,8.272,12.398,15.097,13.24c6.364,0.785,11.558-4.592,17.049-7.905
				c6.686-4.035,15.052-5.181,22.577-3.092C464.432,435.039,468.25,444.014,471.9,450.919z"/>
			<path style="fill:#375E7B;" d="M618.485,420.419h-99.602c0.123-4.458,3.477-9.626,7.212-12.062
				c3.735-2.436,8.677-2.909,12.806-1.225c1.451,0.592,2.842,1.441,4.403,1.587c2.775,0.259,5.278-1.798,6.766-4.155
				c1.488-2.357,2.305-5.087,3.788-7.448c2.982-4.747,8.739-7.599,14.322-7.095c5.583,0.504,10.736,4.341,12.819,9.545
				c1.311,3.274,1.912,7.5,5.18,8.827c3.586,1.455,7.183-1.826,10.878-2.974c4.079-1.268,8.613,0.206,12.01,2.795
				C612.464,410.803,616.066,416.898,618.485,420.419z"/>
			<path style="fill:#73BD83;" d="M656.717,428.324H589.01c2.538-6.004,5.975-12.402,10.947-16.617
				c4.972-4.215,12.932-5.678,17.919-1.48c3.583,3.016,5.746,8.69,10.43,8.768c3.387,0.056,5.853-3.006,8.62-4.96
				c4.3-3.037,10.294-3.477,14.992-1.1C656.614,415.309,656.616,423.06,656.717,428.324z"/>
			<path style="fill:#73BD83;" d="M512.4,457.919h-67.517c2.455-5.82,6.581-11.726,12.096-14.806
				c5.515-3.08,13.005-3.144,17.736,1.04c2.671,2.363,4.517,5.979,7.948,6.95c3.634,1.028,7.235-1.391,10.872-2.405
				C499.919,446.918,509.194,452.119,512.4,457.919z"/>
			<path style="fill:#73BD83;" d="M322.046,456.669h53.587c-4.093-10.232-14.015-18.136-25.033-18.373
				C339.583,438.059,326.575,446.622,322.046,456.669z"/>
			<path style="fill:#3F6764;" d="M290.393,468.252h-90.676c1.839-3.841,3.595-8.613,6.764-11.458
				c3.168-2.845,7.939-4.346,11.781-2.509c1.982,0.948,3.592,2.699,5.735,3.183c2.257,0.51,4.624-0.539,6.345-2.086
				c1.721-1.546,2.949-3.551,4.304-5.426c3.194-4.418,7.424-8.356,12.663-9.862c5.239-1.507,11.565-0.044,14.64,4.457
				c1.667,2.441,2.235,5.442,3.276,8.208c1.041,2.767,2.87,5.569,5.731,6.311c2.763,0.716,5.594-0.691,8.438-0.935
				C284.344,457.711,289.308,463.404,290.393,468.252z"/>
		</g>
		<polygon style="fill:#649960;" points="270.166,395.229 260.202,350.518 255.272,372.64 247.514,337.829 238.418,378.643 
			228.784,335.413 218.913,379.704 210.658,342.663 199.481,392.812 215.992,392.812 215.857,393.416 241.71,393.416 
			239.556,383.749 252.796,383.749 250.238,395.229 		"/>
		<polygon style="fill:#649960;" points="141.81,403.687 156.311,403.687 154.021,393.416 170.759,393.416 169.413,399.458 
			186.648,399.458 178.031,360.789 172.935,383.655 163.53,341.455 152.986,388.767 145.404,354.747 138.153,387.28 
			130.903,354.747 119.592,405.5 142.214,405.5 		"/>
		<polygon style="fill:#649960;" points="652.57,397.729 662.013,397.729 660.522,391.04 671.422,391.04 670.545,394.974 
			681.768,394.974 676.157,369.794 672.838,384.684 666.714,357.204 659.848,388.013 654.911,365.859 650.189,387.045 
			645.468,365.859 638.102,398.909 652.833,398.909 		"/>
		<g>
			<path style="fill:#568670;" d="M289.316,396.224h-63.347c3.575-5.564,6.842-11.729,12.742-14.718
				c5.899-2.989,13.949-2.669,18.243,2.36c2.233,2.615,3.704,6.512,7.089,7.111c2.489,0.44,4.801-1.197,7.16-2.103
				C277.029,386.637,286.457,390.677,289.316,396.224z"/>
			<path style="fill:#568670;" d="M329.775,410.863h-36.006c3.252-6.728,10.205-12.146,17.674-12.349
				C318.913,398.311,326.163,404.321,329.775,410.863z"/>
			<path style="fill:#3F6764;" d="M341.602,414.441h-22.374c2.021-4.181,6.341-7.548,10.983-7.674
				C334.853,406.642,339.358,410.377,341.602,414.441z"/>
			<path style="fill:#3F6764;" d="M239.511,431.703h-69.02c1.014-4.345,4.898-7.977,9.36-7.919c3.035,0.04,6.059,1.469,9.017,0.784
				c4.892-1.132,6.692-7.032,10.16-10.662c2.865-2.999,7.226-4.492,11.328-3.878c4.102,0.614,7.835,3.318,9.697,7.024
				c1.644,3.272,2.215,7.588,5.494,9.22c2.324,1.157,5.083,0.427,7.676,0.3S239.171,429.13,239.511,431.703z"/>
		</g>
		<path style="fill:#A6D57F;" d="M404.506,380.423c-12.612,0.624-25.365,1.63-37.248,5.232c-4.134,1.253-8.246,2.88-11.235,5.585
			c-2.989,2.705-4.654,6.689-3.24,10.182c1.585,3.915,6.601,6.249,11.499,6.688s9.786-0.631,14.591-1.54
			c39.254-7.422,80.062-4.415,120.296-4.832c3.331-0.035,6.732-0.104,9.862-1.06c3.13-0.957,5.993-2.972,6.801-5.685
			c1.052-3.534-1.705-7.241-5.407-9.142c-12.873-6.609-33.876-5.318-48.251-5.828C442.96,379.34,423.705,379.473,404.506,380.423z"
			/>
		<polygon style="fill:#649960;" points="381.927,385.946 390.679,346.677 395.009,366.107 401.823,335.533 409.812,371.379 
			418.274,333.41 426.943,372.311 434.194,339.778 444.01,383.823 429.509,383.823 429.627,384.354 406.92,384.354 408.812,375.863 
			397.183,375.863 399.43,385.946 		"/>
		<polygon style="fill:#649960;" points="506.457,397.597 491.956,397.597 494.245,387.325 477.508,387.325 478.854,393.367 
			461.619,393.367 470.236,354.698 475.332,377.565 484.737,335.364 495.281,382.677 502.863,348.656 510.114,381.19 
			517.364,348.656 528.675,399.409 506.053,399.409 		"/>
		<polygon style="fill:#649960;" points="542.475,361.204 546.636,342.535 552.567,369.151 559.64,337.412 566.536,368.352 
			574.221,333.866 581.492,366.488 587.62,338.989 592.94,362.861 598.26,338.989 608.536,385.096 587.985,385.096 589.126,379.973 
			584.497,379.973 585.726,385.49 562.716,385.49 562.892,384.702 549.101,384.702 551.297,374.85 545.516,374.85 545.692,375.638 
			531.816,375.638 538.754,344.506 		"/>
		<g>
			<polygon style="fill:#649960;" points="571.384,325.835 581.19,325.835 576.287,303.835 			"/>
			<polygon style="fill:#649960;" points="582.607,331.502 591.967,331.502 587.287,310.502 			"/>
			<polygon style="fill:#649960;" points="606.576,327.668 602.787,310.668 600.63,320.346 597.953,308.335 594.239,325.002 
				599.592,325.002 598.998,327.668 			"/>
			<polygon style="fill:#649960;" points="741.1,371.78 731.294,371.78 736.197,349.78 			"/>
			<polygon style="fill:#649960;" points="729.877,377.447 720.517,377.447 725.197,356.447 			"/>
			<polygon style="fill:#649960;" points="705.909,373.614 709.697,356.614 711.854,366.291 714.531,354.28 718.245,370.947 
				712.892,370.947 713.486,373.614 			"/>
			<polygon style="fill:#649960;" points="465.167,313.418 473.19,313.418 469.179,295.418 			"/>
			<polygon style="fill:#649960;" points="476.279,315.507 484.079,315.507 480.179,298.007 			"/>
			<polygon style="fill:#649960;" points="421.167,311.168 429.19,311.168 425.179,293.168 			"/>
			<polygon style="fill:#649960;" points="395.423,309.168 406.269,309.168 400.846,284.835 			"/>
			<polygon style="fill:#649960;" points="385.647,308.502 394.71,308.502 390.179,288.168 			"/>
			<polygon style="fill:#649960;" points="361.679,291.835 358.801,304.747 354.512,285.502 349.572,307.668 359.452,307.668 
				359.341,307.168 365.096,307.168 			"/>
			<polygon style="fill:#649960;" points="343.043,306.168 347.649,306.168 345.346,295.835 			"/>
			<polygon style="fill:#649960;" points="659.4,345.742 670.246,345.742 664.823,321.409 			"/>
			<polygon style="fill:#649960;" points="649.625,345.075 658.688,345.075 654.156,324.742 			"/>
			<polygon style="fill:#649960;" points="648.455,328.409 645.577,341.321 641.288,322.075 636.348,344.242 646.228,344.242 
				646.117,343.742 651.872,343.742 			"/>
			<polygon style="fill:#649960;" points="629.818,342.742 634.424,342.742 632.121,332.409 			"/>
			<polygon style="fill:#649960;" points="539.425,302.007 536.548,314.919 532.259,295.673 527.318,317.84 537.199,317.84 
				537.087,317.34 542.842,317.34 			"/>
			<polygon style="fill:#649960;" points="520.789,316.34 525.395,316.34 523.092,306.007 			"/>
			<polygon style="fill:#649960;" points="710.37,337.992 707.492,350.904 703.203,331.659 698.263,353.825 708.143,353.825 
				708.032,353.325 713.787,353.325 			"/>
			<polygon style="fill:#649960;" points="691.734,352.325 696.339,352.325 694.036,341.992 			"/>
			<polygon style="fill:#649960;" points="113.168,316.168 121.191,316.168 117.179,298.168 			"/>
			<polygon style="fill:#649960;" points="123.689,314.168 129.335,314.168 126.512,301.502 			"/>
			<polygon style="fill:#649960;" points="143.179,298.168 140.457,310.382 137.512,297.168 133.649,314.502 141.375,314.502 
				140.707,311.502 146.15,311.502 			"/>
			<polygon style="fill:#649960;" points="153.845,304.643 152.179,297.168 148.688,312.835 152.019,312.835 151.945,313.168 
				160.413,313.168 156.179,294.168 			"/>
			<polygon style="fill:#649960;" points="162.764,308.835 168.261,308.835 165.512,296.502 			"/>
			<polygon style="fill:#649960;" points="64.098,305.502 66.82,317.715 69.765,304.502 73.628,321.835 65.902,321.835 
				66.57,318.835 61.126,318.835 			"/>
			<polygon style="fill:#649960;" points="46.839,320.976 48.505,313.502 51.996,329.168 48.665,329.168 48.739,329.502 
				40.27,329.502 44.505,310.502 			"/>
			<polygon style="fill:#649960;" points="29.455,331.856 23.958,331.856 26.706,319.523 			"/>
			<polygon style="fill:#649960;" points="221.39,306.168 228.968,306.168 225.179,289.168 			"/>
			<polygon style="fill:#649960;" points="231.949,305.168 237.743,305.168 234.846,292.168 			"/>
			<polygon style="fill:#649960;" points="246.356,301.262 243.512,288.502 239.724,305.502 245.411,305.502 245.077,307.002 
				251.614,307.002 248.346,292.335 			"/>
			<polygon style="fill:#649960;" points="286.117,304.002 290.574,304.002 288.346,294.002 			"/>
			<polygon style="fill:#649960;" points="292.506,305.168 297.186,305.168 294.846,294.668 			"/>
			<polygon style="fill:#649960;" points="299.802,303.668 304.556,303.668 302.179,293.002 			"/>
			<polygon style="fill:#649960;" points="304.526,301.335 308.166,301.335 306.346,293.168 			"/>
			<polygon style="fill:#649960;" points="312.191,302.002 316.5,302.002 314.346,292.335 			"/>
		</g>
	</g>
</g>
</svg>
