<svg xmlns="http://www.w3.org/2000/svg" 
xmlns:xlink="http://www.w3.org/1999/xlink"  
viewBox="0 0 100 125" version="1.1" style="" x="0px" y="0px" fill-rule="evenodd" clip-rule="evenodd" stroke-linejoin="round" stroke-miterlimit="2"><rect serif:id="44 - spinner" x="0" y="0" width="100" height="100" style="" fill="none"/><g serif:id="44 - spinner"><path d="M38.425,31.077l10.601,18.36l-43.052,0l10.601,-18.36l21.85,-0Zm22.175,-0.563l-10.6,18.361l-21.526,-37.284l21.201,0l10.925,18.923Zm11.575,18.924l-21.201,-0l21.526,-37.284l10.6,18.36l-10.925,18.924Zm-10.6,19.485l-10.601,-18.36l43.052,-0.001l-10.601,18.361l-21.85,0Zm-22.175,0.563l10.6,-18.361l21.526,37.284l-21.201,-0l-10.925,-18.923Zm-11.575,-18.924l21.201,0l-21.526,37.284l-10.6,-18.36l10.925,-18.924Z"/>
</g></svg>