<svg xmlns="http://www.w3.org/2000/svg" 
xmlns:xlink="http://www.w3.org/1999/xlink" 
xml:space="preserve" x="0px" y="0px" fill-rule="evenodd" 
clip-rule="evenodd" stroke-linejoin="round" stroke-miterlimit="2" 
width="120px" height="120px" viewBox="0 0 100 100">
  <rect x="0" y="0" width="100" height="100" fill="none"/>
  <g>
    <path d="M38.425,31.077l10.601,18.36c0,0 -29.964,0 -39.896,0c-0.651,0.001 -1.252,-0.347 -1.578,-0.91c-0.325,-0.564 -0.325,-1.259 0,-1.823c0.949,-1.644 1.975,-3.421 1.975,-3.421c4.361,-7.553 12.421,-12.206 21.142,-12.206l7.756,-0Zm22.175,-0.563l-10.6,18.361c0,0 -14.982,-25.949 -19.948,-34.551c-0.325,-0.563 -0.325,-1.258 0,-1.822c0.326,-0.563 0.927,-0.911 1.578,-0.911c1.899,0 3.951,0 3.951,0c8.721,0 16.781,4.653 21.142,12.207l3.877,6.716Zm11.575,18.923l-21.201,0.001c0,0 14.982,-25.95 19.948,-34.551c0.326,-0.564 0.927,-0.911 1.578,-0.911c0.651,-0 1.252,0.347 1.578,0.911c0.949,1.644 1.975,3.421 1.975,3.421c4.361,7.553 4.361,16.859 0,24.413l-3.878,6.716Zm-10.6,19.486l-10.601,-18.36c0,0 29.964,-0 39.896,-0c0.651,-0.001 1.252,0.347 1.578,0.91c0.325,0.564 0.325,1.259 0,1.823c-0.949,1.644 -1.975,3.421 -1.975,3.421c-4.361,7.553 -12.421,12.206 -21.142,12.206l-7.756,0Zm-22.175,0.563l10.6,-18.361c0,0 14.982,25.949 19.948,34.551c0.325,0.563 0.325,1.258 0,1.822c-0.326,0.563 -0.927,0.911 -1.578,0.911c-1.899,-0 -3.951,-0 -3.951,-0c-8.721,-0 -16.781,-4.653 -21.142,-12.207l-3.877,-6.716Zm-11.575,-18.923l21.201,-0.001c0,0 -14.982,25.95 -19.948,34.551c-0.326,0.564 -0.927,0.911 -1.578,0.911c-0.651,0 -1.252,-0.347 -1.578,-0.911c-0.949,-1.644 -1.975,-3.421 -1.975,-3.421c-4.361,-7.553 -4.361,-16.859 0,-24.413l3.878,-6.716Z" fill="#022A26"/>
  </g>
</svg>
